<svg width="100" height="100" viewBox="0 0 100 100" fill="none" xmlns="http://www.w3.org/2000/svg">
<g clip-path="url(#clip0_17_2178)">
<path d="M49.9989 88C70.9852 88 87.9979 78.5484 87.9979 66.8894C87.9979 55.2304 70.9852 45.7789 49.9989 45.7789C29.0127 45.7789 12 55.2304 12 66.8894C12 78.5484 29.0127 88 49.9989 88Z" fill="#99AAB5"/>
<path d="M49.9989 83.7778C70.9852 83.7778 87.9979 74.3263 87.9979 62.6673C87.9979 51.0083 70.9852 41.5568 49.9989 41.5568C29.0127 41.5568 12 51.0083 12 62.6673C12 74.3263 29.0127 83.7778 49.9989 83.7778Z" fill="#CCD6DD"/>
<path d="M49.9989 77.4447C18.4218 77.4447 14.111 45.7789 14.111 37.3347H85.8868C85.8868 41.5568 81.7534 77.4447 49.9989 77.4447Z" fill="#F5F8FA"/>
<path d="M84.5885 32.3611C89.7437 10.9909 63.9403 16.0933 58.8252 20.1191C55.9964 19.8066 53.0494 19.6251 49.9989 19.6251C30.1782 19.6251 14.111 26.4417 14.111 37.4508C14.111 48.4621 30.1782 57.3897 49.9989 57.3897C69.8196 57.3897 85.8868 48.4621 85.8868 37.4529C85.8868 35.6311 85.4097 33.9401 84.5885 32.3611V32.3611ZM79.3045 26.6781C76.4398 24.6979 72.7561 23.102 68.4938 21.9282C72.4521 20.7123 78.1012 21.2759 79.3045 26.6781Z" fill="#CCD6DD"/>
<path d="M49.9989 54.2231C67.4874 54.2231 81.6647 47.607 81.6647 39.4457C81.6647 31.2844 67.4874 24.6684 49.9989 24.6684C32.5104 24.6684 18.3331 31.2844 18.3331 39.4457C18.3331 47.607 32.5104 54.2231 49.9989 54.2231Z" fill="#8A4B38"/>
<path d="M54.2211 47.89C53.6806 47.89 53.1402 47.6831 52.7285 47.2715C47.795 42.3379 47.7127 36.959 52.4647 29.8299C54.0247 27.4888 54.3646 25.0885 53.4737 22.7009C52.5005 20.0917 50.4381 18.4873 49.8195 18.3163C48.6521 18.3163 47.7971 17.3811 47.7971 16.2137C47.7971 15.0484 48.8337 14.1132 49.999 14.1132C52.1037 14.1132 55.0549 16.5472 56.7184 19.6547C58.9013 23.7353 58.6395 28.1812 55.9775 32.1711C51.8377 38.3818 52.7454 41.3162 55.7136 44.2843C56.539 45.1097 56.539 46.4439 55.7136 47.2694C55.3019 47.6831 54.7615 47.89 54.2211 47.89V47.89ZM41.5547 43.6679C41.0143 43.6679 40.4739 43.461 40.0622 43.0494C35.1287 38.1158 35.0464 32.7369 39.7983 25.6078C41.3331 23.3047 41.6835 21.2105 40.8412 19.3866C39.9039 17.3579 37.8203 16.2854 37.2862 16.2221C36.1209 16.2221 35.1984 15.2785 35.1984 14.1111C35.1984 12.9458 36.1652 12 37.3326 12C39.4374 12 42.7897 14.0562 44.4258 17.1151C45.4412 19.0129 46.6466 22.9437 43.3111 27.9469C39.1714 34.1576 40.0791 37.092 43.0473 40.0601C43.8727 40.8855 43.8727 42.2197 43.0473 43.0451C42.6356 43.461 42.0952 43.6679 41.5547 43.6679V43.6679Z" fill="#D99E82"/>
</g>
<defs>
<clipPath id="clip0_17_2178">
<rect width="75.9979" height="76" fill="white" transform="translate(12 12)"/>
</clipPath>
</defs>
</svg>