<svg width="107" height="48" viewBox="0 0 107 48" fill="none" xmlns="http://www.w3.org/2000/svg">
<g clip-path="url(#clip0_17_2219)">
<path d="M22.9995 40.48C32.6532 40.48 40.479 36.1323 40.479 30.7691C40.479 25.406 32.6532 21.0583 22.9995 21.0583C13.3458 21.0583 5.52 25.406 5.52 30.7691C5.52 36.1323 13.3458 40.48 22.9995 40.48Z" fill="#99AAB5"/>
<path d="M22.9995 38.5378C32.6532 38.5378 40.479 34.1901 40.479 28.827C40.479 23.4638 32.6532 19.1161 22.9995 19.1161C13.3458 19.1161 5.52 23.4638 5.52 28.827C5.52 34.1901 13.3458 38.5378 22.9995 38.5378Z" fill="#CCD6DD"/>
<path d="M22.9995 35.6245C8.47404 35.6245 6.49109 21.0583 6.49109 17.174H39.5079C39.5079 19.1161 37.6066 35.6245 22.9995 35.6245Z" fill="#F5F8FA"/>
<path d="M38.9107 14.8861C41.2821 5.05578 29.4126 7.4029 27.0596 9.25475C25.7584 9.11103 24.4027 9.02752 22.9995 9.02752C13.882 9.02752 6.49109 12.1632 6.49109 17.2274C6.49109 22.2925 13.882 26.3992 22.9995 26.3992C32.117 26.3992 39.5079 22.2925 39.5079 17.2283C39.5079 16.3903 39.2885 15.6124 38.9107 14.8861ZM36.4801 12.2719C35.1623 11.361 33.4678 10.6269 31.5072 10.087C33.328 9.52763 35.9266 9.78691 36.4801 12.2719Z" fill="#CCD6DD"/>
<path d="M22.9995 24.9426C31.0442 24.9426 37.5658 21.8992 37.5658 18.145C37.5658 14.3908 31.0442 11.3474 22.9995 11.3474C14.9548 11.3474 8.43326 14.3908 8.43326 18.145C8.43326 21.8992 14.9548 24.9426 22.9995 24.9426Z" fill="#8A4B38"/>
<path d="M24.9417 22.0294C24.6931 22.0294 24.4445 21.9342 24.2551 21.7449C21.9857 19.4754 21.9478 17.0011 24.1337 13.7218C24.8514 12.6448 25.0077 11.5407 24.5979 10.4424C24.1503 9.24215 23.2015 8.50413 22.917 8.42547C22.38 8.42547 21.9867 7.99528 21.9867 7.45827C21.9867 6.92223 22.4635 6.49204 22.9995 6.49204C23.9677 6.49204 25.3253 7.6117 26.0905 9.04114C27.0946 10.9182 26.9742 12.9633 25.7496 14.7987C23.8453 17.6556 24.2629 19.0054 25.6282 20.3708C26.0079 20.7505 26.0079 21.3642 25.6282 21.7439C25.4389 21.9342 25.1903 22.0294 24.9417 22.0294ZM19.1152 20.0872C18.8666 20.0872 18.618 19.9921 18.4286 19.8027C16.1592 17.5333 16.1213 15.0589 18.3072 11.7796C19.0132 10.7201 19.1744 9.75683 18.787 8.91781C18.3558 7.9846 17.3973 7.49129 17.1517 7.46216C16.6156 7.46216 16.1913 7.02808 16.1913 6.49107C16.1913 5.95503 16.636 5.51999 17.173 5.51999C18.1412 5.51999 19.6833 6.46582 20.4359 7.87293C20.903 8.74593 21.4574 10.5541 19.9231 12.8556C18.0188 15.7125 18.4364 17.0623 19.8017 18.4276C20.1814 18.8073 20.1814 19.4211 19.8017 19.8008C19.6124 19.9921 19.3638 20.0872 19.1152 20.0872Z" fill="#D99E82"/>
</g>
<path d="M53.2769 34.432C52.4129 34.432 51.6556 34.2933 51.0049 34.016C50.3649 33.7387 49.8689 33.344 49.5169 32.832C49.1649 32.32 48.9889 31.728 48.9889 31.056C48.9889 30.9387 48.9996 30.7733 49.0209 30.56H51.7889C51.7569 31.5627 52.2529 32.064 53.2769 32.064C53.7036 32.064 54.0503 31.9573 54.3169 31.744C54.5943 31.5413 54.7329 31.2693 54.7329 30.928C54.7329 30.5867 54.6103 30.3253 54.3649 30.144C54.1196 29.9627 53.7676 29.872 53.3089 29.872C52.4236 29.872 51.6503 29.7067 50.9889 29.376C50.3276 29.0453 49.8156 28.576 49.4529 27.968C49.0903 27.36 48.9089 26.6507 48.9089 25.84C48.9089 25.072 49.0956 24.384 49.4689 23.776C49.8423 23.168 50.3596 22.6987 51.0209 22.368C51.6929 22.0267 52.4556 21.856 53.3089 21.856C53.8636 21.856 54.4023 21.9627 54.9249 22.176L55.7889 21.056L57.9169 22.576L56.8929 23.792C57.3836 24.336 57.6289 25.0187 57.6289 25.84C57.6289 26.3733 57.5009 26.8747 57.2449 27.344C56.9889 27.8133 56.6369 28.2133 56.1889 28.544C56.6903 28.8107 57.0743 29.1627 57.3409 29.6C57.6076 30.0267 57.7409 30.5173 57.7409 31.072C57.7409 31.744 57.5543 32.3307 57.1809 32.832C56.8183 33.344 56.3009 33.7387 55.6289 34.016C54.9569 34.2933 54.1729 34.432 53.2769 34.432ZM51.7729 25.84C51.7729 26.32 51.9116 26.7093 52.1889 27.008C52.4663 27.296 52.8343 27.44 53.2929 27.44C53.7516 27.44 54.1196 27.296 54.3969 27.008C54.6743 26.7093 54.8129 26.32 54.8129 25.84C54.8129 25.36 54.6743 24.976 54.3969 24.688C54.1196 24.3893 53.7516 24.24 53.2929 24.24C52.8343 24.24 52.4663 24.3893 52.1889 24.688C51.9116 24.976 51.7729 25.36 51.7729 25.84ZM59.1687 22.096H61.6967L61.8407 22.928C62.1394 22.5973 62.4807 22.3467 62.8647 22.176C63.2487 22.0053 63.6594 21.92 64.0967 21.92C64.5874 21.92 65.0194 22.0213 65.3927 22.224C65.7767 22.4267 66.086 22.7147 66.3207 23.088C66.95 22.3093 67.8354 21.92 68.9767 21.92C69.958 21.92 70.7314 22.208 71.2967 22.784C71.8727 23.3493 72.1607 24.128 72.1607 25.12V30H69.2487V25.552C69.2487 25.168 69.158 24.8693 68.9767 24.656C68.806 24.432 68.5607 24.32 68.2407 24.32C67.8994 24.32 67.622 24.448 67.4087 24.704C67.206 24.9493 67.1047 25.2853 67.1047 25.712V30H64.2247V25.552C64.2247 25.168 64.134 24.8693 63.9527 24.656C63.782 24.432 63.5367 24.32 63.2167 24.32C62.8754 24.32 62.598 24.448 62.3847 24.704C62.182 24.9493 62.0807 25.2853 62.0807 25.712V30H59.1687V22.096ZM74.5773 21.728C74.5773 20.992 74.7373 20.384 75.0573 19.904C75.388 19.424 75.8093 19.072 76.3213 18.848C76.844 18.624 77.3933 18.512 77.9693 18.512C78.4386 18.512 78.8813 18.5813 79.2973 18.72C79.724 18.848 80.092 19.04 80.4013 19.296L79.4573 21.056C79.1373 20.8533 78.8173 20.752 78.4973 20.752C77.8466 20.752 77.5213 21.0773 77.5213 21.728V22.096H79.5533V24.384H77.5213V30H74.5773V24.384H73.2333V22.096H74.5773V21.728ZM80.6531 22.096H83.2131L83.4051 23.04C83.6504 22.656 83.9437 22.3733 84.2851 22.192C84.6371 22.0107 85.0157 21.92 85.4211 21.92C85.7731 21.92 86.1304 21.9893 86.4931 22.128C86.8664 22.2667 87.1864 22.4747 87.4531 22.752L86.2691 24.8C86.0451 24.6613 85.8424 24.5653 85.6611 24.512C85.4904 24.448 85.2984 24.416 85.0851 24.416C84.6157 24.416 84.2424 24.56 83.9651 24.848C83.6984 25.136 83.5651 25.5733 83.5651 26.16V30H80.6531V22.096ZM92.1728 30.176C90.7435 30.176 89.6181 29.8133 88.7968 29.088C87.9861 28.352 87.5808 27.3493 87.5808 26.08C87.5808 25.2587 87.7621 24.5333 88.1248 23.904C88.4875 23.2747 88.9995 22.7893 89.6608 22.448C90.3221 22.096 91.0795 21.92 91.9328 21.92C92.7968 21.92 93.5488 22.08 94.1888 22.4C94.8288 22.72 95.3195 23.1733 95.6608 23.76C96.0128 24.336 96.1888 25.0027 96.1888 25.76C96.1888 26.144 96.1515 26.5067 96.0768 26.848H90.5248C90.6101 27.168 90.8075 27.4293 91.1168 27.632C91.4368 27.824 91.8421 27.92 92.3328 27.92C93.1008 27.92 93.7835 27.7173 94.3808 27.312L95.8048 28.912C94.8128 29.7547 93.6021 30.176 92.1728 30.176ZM93.4208 25.392C93.4101 24.9973 93.2821 24.688 93.0368 24.464C92.7915 24.24 92.4555 24.128 92.0288 24.128C91.5915 24.128 91.2341 24.24 90.9568 24.464C90.6901 24.688 90.5515 24.9973 90.5408 25.392H93.4208ZM97.4499 22.096H99.9779L100.138 23.024C100.437 22.672 100.799 22.4 101.226 22.208C101.653 22.016 102.122 21.92 102.634 21.92C103.594 21.92 104.351 22.2347 104.906 22.864C105.471 23.4827 105.754 24.352 105.754 25.472V30H102.842V25.632C102.842 25.2267 102.741 24.9067 102.538 24.672C102.335 24.4373 102.053 24.32 101.69 24.32C101.295 24.32 100.975 24.4587 100.73 24.736C100.485 25.0133 100.362 25.3813 100.362 25.84V30H97.4499V22.096Z" fill="white"/>
<defs>
<clipPath id="clip0_17_2219">
<rect width="34.959" height="34.96" fill="white" transform="translate(5.52 5.51999)"/>
</clipPath>
</defs>
</svg>